<svg xmlns="http://www.w3.org/2000/svg" viewBox="0 0 48 48"><defs><style>.cls-1{fill:#f8b21c;}.cls-2{fill:#fff;}</style></defs><title>LogoCircleOrange</title><g id="Слой_2" data-name="Слой 2"><circle class="cls-1" cx="24" cy="24" r="24"/></g><g id="Слой_1" data-name="Слой 1"><path class="cls-2" d="M30.58,36.78V31a.84.84,0,0,0-1.67,0v5.79a.84.84,0,0,0,1.67,0Z" transform="translate(0 0)"/><path class="cls-2" d="M42.17,36.78V31a.84.84,0,0,0-1.67,0v5.79a.84.84,0,0,0,1.67,0Z" transform="translate(0 0)"/><path class="cls-2" d="M21.87,13.39c-.32-.1-.63-.22-1-.3-1-.26-1.49,1.35-.44,1.61.32.08.64.19,1,.3,1,.34,1.46-1.28.44-1.61Z" transform="translate(0 0)"/><path class="cls-2" d="M18.55,12.81a1.57,1.57,0,0,0-.32,0,.86.86,0,0,0-.83.83.84.84,0,0,0,.83.83,1.57,1.57,0,0,1,.32,0,.84.84,0,0,0,.83-.83.86.86,0,0,0-.83-.83Z" transform="translate(0 0)"/><path class="cls-2" d="M18.55,14.48a11,11,0,0,1,1.93.22c1,.22,1.5-1.39.44-1.61a13.68,13.68,0,0,0-2.37-.28c-1.07,0-1.07,1.63,0,1.67Z" transform="translate(0 0)"/><path class="cls-2" d="M18.23,12.77A12.62,12.62,0,0,0,5.83,25.19a.84.84,0,0,0,1.67,0A10.91,10.91,0,0,1,18.23,14.44c1.07,0,1.08-1.7,0-1.67Z" transform="translate(0 0)"/><path class="cls-2" d="M26.64,31.84A10.83,10.83,0,0,1,7.5,25.19c-.05-1.07-1.72-1.08-1.67,0a12.49,12.49,0,0,0,22,7.83c.71-.8-.47-2-1.18-1.18Z" transform="translate(0 0)"/><path class="cls-2" d="M18.21,12.77A12.59,12.59,0,0,0,5.83,25.19a.84.84,0,0,0,1.67,0A10.89,10.89,0,0,1,18.21,14.44a.84.84,0,0,0,0-1.67Z" transform="translate(0 0)"/><path class="cls-2" d="M20.47,14.7c.32.08.64.19,1,.3,1,.34,1.46-1.28.44-1.61-.32-.1-.63-.22-1-.3a.84.84,0,0,0-.44,1.61Z" transform="translate(0 0)"/><path class="cls-2" d="M18.23,14.44l.32,0a.84.84,0,0,0,.83-.83.85.85,0,0,0-.83-.83l-.32,0a.84.84,0,0,0-.83.83.85.85,0,0,0,.83.83Z" transform="translate(0 0)"/><path class="cls-2" d="M18.21,14.44h0a.84.84,0,0,0,.83-.83.85.85,0,0,0-.83-.83h0a.84.84,0,0,0-.83.83.85.85,0,0,0,.83.83Z" transform="translate(0 0)"/><path class="cls-2" d="M20.92,13.09a13.86,13.86,0,0,0-2.37-.28c-1.07,0-1.07,1.63,0,1.67a11.19,11.19,0,0,1,1.93.22c1,.22,1.5-1.39.44-1.61Z" transform="translate(0 0)"/><path class="cls-2" d="M27.74,17.36a12.23,12.23,0,0,0-5.87-4L21.43,15a10.89,10.89,0,0,1,4.75,3.09c.73.79,1.91-.39,1.18-1.18a12.58,12.58,0,0,0-5.49-3.52c-1-.33-1.47,1.28-.44,1.61a10.71,10.71,0,0,1,5.13,3.55c.67.84,1.85-.35,1.18-1.18Z" transform="translate(0 0)"/><path class="cls-2" d="M18.21,14.44A37.45,37.45,0,0,0,30,12.39c1-.35.58-2-.44-1.61a36,36,0,0,1-11.32,2,.84.84,0,0,0,0,1.67Z" transform="translate(0 0)"/><path class="cls-2" d="M18.21,12.77a36,36,0,0,1-11.32-2c-1-.35-1.46,1.26-.44,1.61a37.45,37.45,0,0,0,11.76,2.05.84.84,0,0,0,0-1.67Z" transform="translate(0 0)"/><path class="cls-2" d="M28.91,11.59V18a.84.84,0,0,0,1.67,0V11.59a.84.84,0,0,0-1.67,0Z" transform="translate(0 0)"/><path class="cls-2" d="M5.83,11.59V25.19a.84.84,0,0,0,1.67,0V11.59a.84.84,0,0,0-1.67,0Z" transform="translate(0 0)"/><path class="cls-2" d="M28.91,11.59V31a.84.84,0,0,0,1.67,0V11.59a.84.84,0,0,0-1.67,0Z" transform="translate(0 0)"/><path class="cls-2" d="M42.17,31a6.63,6.63,0,0,0-13.26,0c-.06,1.07,1.61,1.07,1.67,0,.34-6.38,9.57-6.39,9.92,0,.06,1.07,1.73,1.08,1.67,0Z" transform="translate(0 0)"/><path class="cls-2" d="M24.39,24.47l-8.69-5a.84.84,0,0,0-1.26.72v10a.84.84,0,0,0,1.26.72l8.69-5a.84.84,0,0,0-.84-1.44l-8.69,5,1.26.72v-10l-1.26.72,8.69,5A.84.84,0,0,0,24.39,24.47Z" transform="translate(0 0)"/></g></svg>