<svg id="Слой_1" data-name="Слой 1" xmlns="http://www.w3.org/2000/svg" viewBox="0 0 39.18 28.95"><defs><style>.cls-1{fill:#fff;}</style></defs><title>logoBoldWhite</title><path class="cls-1" d="M31.1,37.76V31.52a.9.9,0,0,0-1.8,0v6.25a.9.9,0,0,0,1.8,0Z" transform="translate(-4.41 -9.68)"/><path class="cls-1" d="M43.59,37.76V31.52a.9.9,0,0,0-1.8,0v6.25a.9.9,0,0,0,1.8,0Z" transform="translate(-4.41 -9.68)"/><path class="cls-1" d="M21.71,12.54c-.34-.11-.68-.23-1-.32-1.12-.28-1.6,1.46-.48,1.74.35.09.69.21,1,.32,1.1.36,1.58-1.38.48-1.74Z" transform="translate(-4.41 -9.68)"/><path class="cls-1" d="M18.12,11.92a1.69,1.69,0,0,0-.34,0,.93.93,0,0,0-.9.9.91.91,0,0,0,.9.9,1.69,1.69,0,0,1,.34,0,.9.9,0,0,0,.9-.9.92.92,0,0,0-.9-.9Z" transform="translate(-4.41 -9.68)"/><path class="cls-1" d="M18.12,13.72A11.83,11.83,0,0,1,20.2,14c1.13.24,1.61-1.5.48-1.74a14.65,14.65,0,0,0-2.56-.3c-1.16,0-1.16,1.76,0,1.8Z" transform="translate(-4.41 -9.68)"/><path class="cls-1" d="M17.78,11.88A13.6,13.6,0,0,0,4.41,25.27a.9.9,0,0,0,1.8,0A11.76,11.76,0,0,1,17.78,13.68c1.16,0,1.16-1.83,0-1.8Z" transform="translate(-4.41 -9.68)"/><path class="cls-1" d="M26.85,32.44A11.67,11.67,0,0,1,6.21,25.27c-.05-1.15-1.86-1.16-1.8,0a13.47,13.47,0,0,0,23.71,8.44c.77-.86-.5-2.14-1.27-1.27Z" transform="translate(-4.41 -9.68)"/><path class="cls-1" d="M17.75,11.88A13.58,13.58,0,0,0,4.41,25.27a.9.9,0,0,0,1.8,0A11.74,11.74,0,0,1,17.75,13.68a.9.9,0,0,0,0-1.8Z" transform="translate(-4.41 -9.68)"/><path class="cls-1" d="M20.2,14c.35.09.69.21,1,.32,1.1.36,1.58-1.38.48-1.74-.34-.11-.68-.23-1-.32A.9.9,0,0,0,20.2,14Z" transform="translate(-4.41 -9.68)"/><path class="cls-1" d="M17.78,13.68l.34,0a.91.91,0,0,0,.9-.9.92.92,0,0,0-.9-.9l-.34,0a.91.91,0,0,0-.9.9.92.92,0,0,0,.9.9Z" transform="translate(-4.41 -9.68)"/><path class="cls-1" d="M17.75,13.68h0a.91.91,0,0,0,.9-.9.92.92,0,0,0-.9-.9h0a.91.91,0,0,0-.9.9.92.92,0,0,0,.9.9Z" transform="translate(-4.41 -9.68)"/><path class="cls-1" d="M20.68,12.22a14.84,14.84,0,0,0-2.56-.3c-1.16,0-1.16,1.76,0,1.8A12,12,0,0,1,20.2,14c1.13.24,1.61-1.49.48-1.74Z" transform="translate(-4.41 -9.68)"/><path class="cls-1" d="M28,16.83a13.19,13.19,0,0,0-6.33-4.29l-.48,1.74a11.74,11.74,0,0,1,5.12,3.33c.79.86,2.06-.42,1.27-1.27a13.56,13.56,0,0,0-5.92-3.79c-1.11-.35-1.58,1.38-.48,1.74a11.55,11.55,0,0,1,5.53,3.82c.72.9,2-.38,1.27-1.27Z" transform="translate(-4.41 -9.68)"/><path class="cls-1" d="M17.75,13.68a40.38,40.38,0,0,0,12.68-2.21c1.09-.37.62-2.11-.48-1.74a38.84,38.84,0,0,1-12.2,2.15.9.9,0,0,0,0,1.8Z" transform="translate(-4.41 -9.68)"/><path class="cls-1" d="M17.75,11.88A38.84,38.84,0,0,1,5.55,9.73C4.45,9.36,4,11.1,5.07,11.47a40.38,40.38,0,0,0,12.68,2.21.9.9,0,0,0,0-1.8Z" transform="translate(-4.41 -9.68)"/><path class="cls-1" d="M29.3,10.6v6.86a.9.9,0,0,0,1.8,0V10.6a.9.9,0,0,0-1.8,0Z" transform="translate(-4.41 -9.68)"/><path class="cls-1" d="M4.41,10.6V25.27a.9.9,0,0,0,1.8,0V10.6a.9.9,0,0,0-1.8,0Z" transform="translate(-4.41 -9.68)"/><path class="cls-1" d="M29.3,10.6V31.52a.9.9,0,0,0,1.8,0V10.6a.9.9,0,0,0-1.8,0Z" transform="translate(-4.41 -9.68)"/><path class="cls-1" d="M43.59,31.52a7.15,7.15,0,0,0-14.29,0c-.06,1.16,1.74,1.15,1.8,0,.37-6.87,10.32-6.89,10.69,0,.06,1.15,1.86,1.16,1.8,0Z" transform="translate(-4.41 -9.68)"/><path class="cls-1" d="M24.42,24.5,15,19.09a.91.91,0,0,0-1.35.78V30.68a.91.91,0,0,0,1.35.78L24.42,26a.9.9,0,0,0-.91-1.55L14.14,29.9l1.35.78V19.86l-1.35.78L23.51,26A.9.9,0,0,0,24.42,24.5Z" transform="translate(-4.41 -9.68)"/></svg>